<svg viewBox="0 0 88 88" xmlns="http://www.w3.org/2000/svg">
  <defs>
    <linearGradient id="top" x1="0" y1="0" x2="0" y2="1">
      <stop offset="0" stop-color="#6BDD78"/><stop offset="1" stop-color="#4CC661"/>
    </linearGradient>
    <linearGradient id="left" x1="0" y1="0" x2="0" y2="1">
      <stop offset="0" stop-color="#46C95B"/><stop offset="1" stop-color="#2F9E46"/>
    </linearGradient>
    <linearGradient id="right" x1="0" y1="0" x2="0" y2="1">
      <stop offset="0" stop-color="#2E9440"/><stop offset="1" stop-color="#1C6B2E"/>
    </linearGradient>
  </defs>
  <rect width="88" height="88" rx="20" fill="#0a0a0f"/>
  <g transform="translate(0 2)">
    <path d="M44 4 L80 22 L44 40 L8 22 Z" fill="url(#top)"/>
    <path d="M8 22 L44 40 L44 84 L8 66 Z" fill="url(#left)"/>
    <path d="M44 40 L80 22 L80 66 L44 84 Z" fill="url(#right)"/>
    <g fill="#0a0a0f">
      <path d="M34 37 L40 40 L40 78 L34 75 Z"/>
      <path d="M16 42 L34 51 L34 57 L16 48 Z"/>
      <path d="M16 48 L22 51 L22 63 L16 60 Z"/>
      <path d="M16 60 L34 69 L34 75 L16 66 Z"/>
    </g>
  </g>
</svg>
